<svg width="23" height="26" viewBox="0 0 23 26" fill="none" xmlns="http://www.w3.org/2000/svg">
<path d="M13.1719 25.8125C11.1927 25.8125 9.55729 25.5521 8.26562 25.0312C6.97396 24.5 5.94271 23.7917 5.17188 22.9062L4.375 25.3594H0.078125V16.9844H5.90625C6.10417 18.1927 6.70833 19.1875 7.71875 19.9688C8.72917 20.7396 10.0052 21.125 11.5469 21.125C12.3906 21.125 13.0417 20.9583 13.5 20.625C13.9583 20.2812 14.1875 19.8125 14.1875 19.2188C14.1875 18.5729 13.9323 18.0833 13.4219 17.75C12.9115 17.4167 12.2344 17.1562 11.3906 16.9688C10.5469 16.7812 9.61979 16.599 8.60938 16.4219C7.59896 16.2448 6.58854 16 5.57812 15.6875C4.56771 15.375 3.64062 14.9167 2.79688 14.3125C1.95312 13.7083 1.27604 12.8906 0.765625 11.8594C0.255208 10.8177 0 9.48438 0 7.85938C0 6.28646 0.375 4.91146 1.125 3.73438C1.88542 2.55729 2.97396 1.64062 4.39062 0.984375C5.80729 0.328125 7.50521 0 9.48438 0C11.2552 0 12.7344 0.255208 13.9219 0.765625C15.1094 1.27604 16.0781 2 16.8281 2.9375L17.625 0.484375H21.9219V8.54688H15.9688C15.6667 7.30729 15.0625 6.35417 14.1562 5.6875C13.2604 5.02083 12.2188 4.6875 11.0312 4.6875C10.1875 4.6875 9.51562 4.84896 9.01562 5.17188C8.51562 5.48438 8.26562 5.94792 8.26562 6.5625C8.26562 7.13542 8.52083 7.57292 9.03125 7.875C9.54167 8.17708 10.2188 8.42188 11.0625 8.60938C11.9062 8.79688 12.8333 8.98958 13.8438 9.1875C14.8542 9.38542 15.8646 9.65625 16.875 10C17.8854 10.3438 18.8125 10.8281 19.6562 11.4531C20.5 12.0677 21.1771 12.8906 21.6875 13.9219C22.1979 14.9531 22.4531 16.2604 22.4531 17.8438C22.4531 20.3229 21.6302 22.2708 19.9844 23.6875C18.3385 25.1042 16.0677 25.8125 13.1719 25.8125Z" fill="#F97316"/>
</svg>
